<svg width="1280" height="800" viewBox="0 0 1280 800" fill="none" xmlns="http://www.w3.org/2000/svg">
<g clip-path="url(#clip0_2_2)">
<rect width="1280" height="800" fill="white"/>
<g clip-path="url(#clip1_2_2)">
<path d="M1038 492C1040.21 492 1042 490.209 1042 488C1042 485.791 1040.21 484 1038 484C1035.79 484 1034 485.791 1034 488C1034 490.209 1035.79 492 1038 492Z" fill="white"/>
<path d="M1038 491.5C1039.93 491.5 1041.5 489.933 1041.5 488C1041.5 486.067 1039.93 484.5 1038 484.5C1036.07 484.5 1034.5 486.067 1034.5 488C1034.5 489.933 1036.07 491.5 1038 491.5Z" stroke="#DD3542"/>
</g>
<g clip-path="url(#clip2_2_2)">
<path d="M979.999 554.507C979.583 552.954 977.987 552.033 976.434 552.45C974.881 552.866 973.96 554.462 974.376 556.015C974.792 557.568 976.389 558.489 977.941 558.073C979.494 557.657 980.416 556.06 979.999 554.507Z" fill="#413E4D"/>
<path d="M968.753 557.523C968.337 555.97 966.74 555.048 965.188 555.465C963.635 555.881 962.713 557.477 963.13 559.03C963.546 560.583 965.142 561.504 966.695 561.088C968.248 560.672 969.169 559.075 968.753 557.523Z" fill="#413E4D"/>
<path d="M957.506 560.538C957.09 558.985 955.493 558.064 953.94 558.48C952.388 558.897 951.466 560.493 951.883 562.046C952.299 563.599 953.895 564.52 955.448 564.104C957.001 563.687 957.922 562.091 957.506 560.538Z" fill="#413E4D"/>
<path d="M946.26 563.553C945.843 562.001 944.247 561.079 942.694 561.496C941.141 561.912 940.22 563.508 940.636 565.061C941.053 566.614 942.649 567.535 944.202 567.119C945.755 566.703 946.676 565.106 946.26 563.553Z" fill="#413E4D"/>
<path d="M960.114 547.784C959.697 546.231 958.101 545.31 956.548 545.727C954.995 546.143 954.074 547.739 954.49 549.292C954.907 550.845 956.503 551.766 958.056 551.35C959.609 550.934 960.53 549.337 960.114 547.784Z" fill="#413E4D"/>
<path d="M948.868 550.8C948.451 549.247 946.855 548.325 945.302 548.742C943.749 549.158 942.828 550.754 943.244 552.307C943.661 553.86 945.257 554.782 946.81 554.365C948.363 553.949 949.284 552.352 948.868 550.8Z" fill="#413E4D"/>
<path d="M937.62 553.815C937.204 552.262 935.608 551.341 934.055 551.757C932.502 552.174 931.581 553.77 931.997 555.323C932.413 556.876 934.01 557.797 935.563 557.381C937.115 556.964 938.037 555.368 937.62 553.815Z" fill="#413E4D"/>
<path d="M926.374 556.83C925.958 555.278 924.362 554.356 922.809 554.773C921.256 555.189 920.335 556.785 920.751 558.338C921.167 559.891 922.764 560.812 924.316 560.396C925.869 559.98 926.791 558.383 926.374 556.83Z" fill="#413E4D"/>
</g>
<g clip-path="url(#clip3_2_2)">
<rect width="719.265" height="702.382" transform="translate(-119 280)" fill="white"/>
<path d="M499.575 766.601L270.138 823.924V600.458L469.116 550.909C507.436 541.188 545.266 569.855 545.266 609.209V708.793C545.01 722.096 540.404 734.95 532.153 745.389C523.902 755.828 512.46 763.278 499.575 766.601Z" fill="#F7F7F7"/>
<path d="M270.135 600.942L-97.85 696.157C-136.66 706.357 -174 677.697 -174 638.345V538.758C-174 511.551 -155.331 487.751 -128.309 480.947L194.476 396.905C232.797 387.191 270.627 415.852 270.627 455.199L270.135 600.942Z" fill="#FAFAFA"/>
<path d="M292 371.5C294.209 371.5 296 369.709 296 367.5C296 365.291 294.209 363.5 292 363.5C289.791 363.5 288 365.291 288 367.5C288 369.709 289.791 371.5 292 371.5Z" fill="white"/>
<path d="M291.5 378.5C293.433 378.5 295 376.933 295 375C295 373.067 293.433 371.5 291.5 371.5C289.567 371.5 288 373.067 288 375C288 376.933 289.567 378.5 291.5 378.5Z" stroke="#DD3542"/>
<g clip-path="url(#clip4_2_2)">
<path d="M406.999 314.507C406.583 312.954 404.987 312.033 403.434 312.449C401.881 312.866 400.959 314.462 401.376 316.015C401.792 317.568 403.389 318.489 404.941 318.073C406.494 317.657 407.416 316.06 406.999 314.507Z" fill="#413E4D"/>
<path d="M395.753 317.523C395.337 315.97 393.74 315.048 392.188 315.465C390.635 315.881 389.713 317.477 390.13 319.03C390.546 320.583 392.142 321.504 393.695 321.088C395.248 320.672 396.169 319.075 395.753 317.523Z" fill="#413E4D"/>
<path d="M384.506 320.538C384.09 318.985 382.493 318.064 380.94 318.48C379.388 318.897 378.466 320.493 378.883 322.046C379.299 323.599 380.895 324.52 382.448 324.104C384.001 323.687 384.922 322.091 384.506 320.538Z" fill="#413E4D"/>
<path d="M373.26 323.553C372.843 322.001 371.247 321.079 369.694 321.496C368.141 321.912 367.22 323.508 367.636 325.061C368.053 326.614 369.649 327.535 371.202 327.119C372.755 326.703 373.676 325.106 373.26 323.553Z" fill="#413E4D"/>
<path d="M387.114 307.784C386.697 306.231 385.101 305.31 383.548 305.726C381.995 306.143 381.074 307.739 381.49 309.292C381.907 310.845 383.503 311.766 385.056 311.35C386.609 310.934 387.53 309.337 387.114 307.784Z" fill="#413E4D"/>
<path d="M375.868 310.8C375.451 309.247 373.855 308.325 372.302 308.742C370.749 309.158 369.828 310.754 370.244 312.307C370.661 313.86 372.257 314.781 373.81 314.365C375.363 313.949 376.284 312.352 375.868 310.8Z" fill="#413E4D"/>
<path d="M364.62 313.815C364.204 312.262 362.608 311.341 361.055 311.757C359.502 312.174 358.581 313.77 358.997 315.323C359.413 316.876 361.01 317.797 362.563 317.381C364.115 316.964 365.037 315.368 364.62 313.815Z" fill="#413E4D"/>
<path d="M353.374 316.83C352.958 315.278 351.362 314.356 349.809 314.773C348.256 315.189 347.335 316.785 347.751 318.338C348.167 319.891 349.764 320.812 351.316 320.396C352.869 319.98 353.791 318.383 353.374 316.83Z" fill="#413E4D"/>
</g>
</g>
<path d="M1335.34 491.194L1205.83 525.223C1168.97 534.291 1132.57 507.522 1132.57 470.772V377.767C1132.62 365.36 1136.92 353.323 1144.8 343.549C1152.67 333.774 1163.66 326.817 1176.05 323.771L1378.83 271.148V436.749C1379.31 462.61 1361.35 484.839 1335.34 491.194Z" fill="#FAFAFA"/>
<path d="M1379.3 63.3423L1025.26 152.27C987.925 161.796 952 135.029 952 98.2754V5.26456C952 -20.1458 969.961 -42.3742 995.959 -48.7289L1306.51 -127.221C1343.38 -136.294 1379.77 -109.525 1379.77 -72.7766L1379.3 63.3423Z" fill="#F7F7F7"/>
<path d="M1335.34 491.194L1205.83 525.223C1168.97 534.291 1132.57 507.522 1132.57 470.772V377.767C1132.62 365.36 1136.92 353.323 1144.8 343.549C1152.67 333.774 1163.66 326.817 1176.05 323.771L1378.83 271.148V436.749C1379.31 462.61 1361.35 484.839 1335.34 491.194Z" fill="#FAFAFA"/>
<path d="M1379.3 63.3423L1025.26 152.27C987.925 161.796 952 135.029 952 98.2754V5.26456C952 -20.1458 969.961 -42.3742 995.959 -48.7289L1306.51 -127.221C1343.38 -136.294 1379.77 -109.525 1379.77 -72.7766L1379.3 63.3423Z" fill="#F7F7F7"/>
</g>
<defs>
<clipPath id="clip0_2_2">
<rect width="1280" height="800" fill="white"/>
</clipPath>
<clipPath id="clip1_2_2">
<rect width="8" height="8" fill="white" transform="translate(1034 484)"/>
</clipPath>
<clipPath id="clip2_2_2">
<rect width="60.749" height="22.895" fill="white" transform="translate(920 545)"/>
</clipPath>
<clipPath id="clip3_2_2">
<rect width="719.265" height="702.382" fill="white" transform="translate(-119 280)"/>
</clipPath>
<clipPath id="clip4_2_2">
<rect width="60.749" height="22.895" fill="white" transform="translate(347 305)"/>
</clipPath>
</defs>
</svg>
