<svg width="1763" height="1112" viewBox="0 0 1763 1112" fill="none" xmlns="http://www.w3.org/2000/svg">
<rect width="1763" height="1112" fill="#1E1E1E"/>
<rect width="1280" height="800" transform="translate(119 129)" fill="white"/>
<g clip-path="url(#clip0_0_1)">
<path d="M1157 621C1159.21 621 1161 619.209 1161 617C1161 614.791 1159.21 613 1157 613C1154.79 613 1153 614.791 1153 617C1153 619.209 1154.79 621 1157 621Z" fill="white"/>
<path d="M1157 620.5C1158.93 620.5 1160.5 618.933 1160.5 617C1160.5 615.067 1158.93 613.5 1157 613.5C1155.07 613.5 1153.5 615.067 1153.5 617C1153.5 618.933 1155.07 620.5 1157 620.5Z" stroke="#DD3542"/>
</g>
<g clip-path="url(#clip1_0_1)">
<path d="M1099 683.507C1098.58 681.954 1096.99 681.033 1095.43 681.45C1093.88 681.866 1092.96 683.462 1093.38 685.015C1093.79 686.568 1095.39 687.489 1096.94 687.073C1098.49 686.657 1099.42 685.06 1099 683.507Z" fill="#413E4D"/>
<path d="M1087.75 686.523C1087.34 684.97 1085.74 684.048 1084.19 684.465C1082.63 684.881 1081.71 686.477 1082.13 688.03C1082.55 689.583 1084.14 690.504 1085.7 690.088C1087.25 689.672 1088.17 688.075 1087.75 686.523Z" fill="#413E4D"/>
<path d="M1076.51 689.538C1076.09 687.985 1074.49 687.064 1072.94 687.48C1071.39 687.897 1070.47 689.493 1070.88 691.046C1071.3 692.599 1072.9 693.52 1074.45 693.104C1076 692.687 1076.92 691.091 1076.51 689.538Z" fill="#413E4D"/>
<path d="M1065.26 692.553C1064.84 691.001 1063.25 690.079 1061.69 690.496C1060.14 690.912 1059.22 692.508 1059.64 694.061C1060.05 695.614 1061.65 696.535 1063.2 696.119C1064.75 695.703 1065.68 694.106 1065.26 692.553Z" fill="#413E4D"/>
<path d="M1079.11 676.784C1078.7 675.231 1077.1 674.31 1075.55 674.727C1074 675.143 1073.07 676.739 1073.49 678.292C1073.91 679.845 1075.5 680.766 1077.06 680.35C1078.61 679.934 1079.53 678.337 1079.11 676.784Z" fill="#413E4D"/>
<path d="M1067.87 679.8C1067.45 678.247 1065.85 677.325 1064.3 677.742C1062.75 678.158 1061.83 679.754 1062.24 681.307C1062.66 682.86 1064.26 683.782 1065.81 683.365C1067.36 682.949 1068.28 681.352 1067.87 679.8Z" fill="#413E4D"/>
<path d="M1056.62 682.815C1056.2 681.262 1054.61 680.341 1053.05 680.757C1051.5 681.174 1050.58 682.77 1051 684.323C1051.41 685.876 1053.01 686.797 1054.56 686.381C1056.12 685.964 1057.04 684.368 1056.62 682.815Z" fill="#413E4D"/>
<path d="M1045.37 685.83C1044.96 684.278 1043.36 683.356 1041.81 683.773C1040.26 684.189 1039.33 685.785 1039.75 687.338C1040.17 688.891 1041.76 689.812 1043.32 689.396C1044.87 688.98 1045.79 687.383 1045.37 685.83Z" fill="#413E4D"/>
</g>
<g clip-path="url(#clip2_0_1)">
<path d="M514.999 404.507C514.583 402.954 512.987 402.033 511.434 402.449C509.881 402.866 508.959 404.462 509.376 406.015C509.792 407.568 511.389 408.489 512.941 408.073C514.494 407.657 515.416 406.06 514.999 404.507Z" fill="#413E4D"/>
<path d="M503.753 407.523C503.337 405.97 501.74 405.048 500.187 405.465C498.635 405.881 497.713 407.477 498.13 409.03C498.546 410.583 500.142 411.504 501.695 411.088C503.248 410.672 504.169 409.075 503.753 407.523Z" fill="#413E4D"/>
<path d="M492.506 410.538C492.09 408.985 490.493 408.064 488.94 408.48C487.388 408.897 486.466 410.493 486.883 412.046C487.299 413.599 488.895 414.52 490.448 414.104C492.001 413.687 492.922 412.091 492.506 410.538Z" fill="#413E4D"/>
<path d="M481.26 413.553C480.843 412.001 479.247 411.079 477.694 411.496C476.141 411.912 475.22 413.508 475.636 415.061C476.053 416.614 477.649 417.535 479.202 417.119C480.755 416.703 481.676 415.106 481.26 413.553Z" fill="#413E4D"/>
<path d="M495.114 397.784C494.697 396.231 493.101 395.31 491.548 395.726C489.995 396.143 489.074 397.739 489.49 399.292C489.907 400.845 491.503 401.766 493.056 401.35C494.609 400.934 495.53 399.337 495.114 397.784Z" fill="#413E4D"/>
<path d="M483.868 400.8C483.451 399.247 481.855 398.325 480.302 398.742C478.749 399.158 477.828 400.754 478.244 402.307C478.661 403.86 480.257 404.781 481.81 404.365C483.363 403.949 484.284 402.352 483.868 400.8Z" fill="#413E4D"/>
<path d="M472.62 403.815C472.204 402.262 470.608 401.341 469.055 401.757C467.502 402.174 466.581 403.77 466.997 405.323C467.413 406.876 469.01 407.797 470.563 407.381C472.115 406.964 473.037 405.368 472.62 403.815Z" fill="#413E4D"/>
<path d="M461.374 406.83C460.958 405.278 459.362 404.356 457.809 404.773C456.256 405.189 455.335 406.785 455.751 408.338C456.167 409.891 457.764 410.812 459.316 410.396C460.869 409.98 461.791 408.383 461.374 406.83Z" fill="#413E4D"/>
</g>
<path d="M1719.04 347.062L1498.3 400.6V191.89L1689.74 145.613C1726.6 136.534 1763 163.308 1763 200.063V293.071C1762.75 305.496 1758.32 317.501 1750.38 327.251C1742.45 337.001 1731.44 343.959 1719.04 347.062Z" fill="#FAFAFA"/>
<path d="M1454.34 620.194L1324.83 654.223C1287.97 663.291 1251.57 636.522 1251.57 599.772V506.767C1251.62 494.36 1255.92 482.323 1263.8 472.549C1271.67 462.774 1282.66 455.817 1295.05 452.771L1497.83 400.148V565.749C1498.31 591.61 1480.35 613.839 1454.34 620.194Z" fill="#FAFAFA"/>
<path d="M1498.3 192.342L1144.26 281.27C1106.92 290.796 1071 264.029 1071 227.275V134.265C1071 108.854 1088.96 86.6258 1114.96 80.2711L1425.51 1.77881C1462.38 -7.29372 1498.77 19.4747 1498.77 56.2234L1498.3 192.342Z" fill="#F7F7F7"/>
<g clip-path="url(#clip3_0_1)">
<path d="M618.575 895.601L389.138 952.924V729.458L588.116 679.909C626.436 670.188 664.266 698.855 664.266 738.209V837.793C664.01 851.096 659.404 863.95 651.153 874.389C642.902 884.828 631.46 892.278 618.575 895.601Z" fill="#F7F7F7"/>
<path d="M343.447 1188.04L208.835 1224.48C170.514 1234.19 132.681 1205.53 132.681 1166.18V1066.6C132.739 1053.31 137.211 1040.43 145.393 1029.96C153.575 1019.49 165.003 1012.05 177.881 1008.78L388.647 952.44V1129.75C389.142 1157.44 370.474 1181.24 343.447 1188.04Z" fill="#F7F7F7"/>
<path d="M389.135 729.942L21.15 825.157C-17.66 835.357 -55 806.697 -55 767.345V667.758C-55 640.551 -36.331 616.751 -9.309 609.947L313.476 525.905C351.797 516.191 389.627 544.852 389.627 584.199L389.135 729.942Z" fill="#FAFAFA"/>
<path d="M411 504C413.209 504 415 502.209 415 500C415 497.791 413.209 496 411 496C408.791 496 407 497.791 407 500C407 502.209 408.791 504 411 504Z" fill="white"/>
<path d="M411 503.5C412.933 503.5 414.5 501.933 414.5 500C414.5 498.067 412.933 496.5 411 496.5C409.067 496.5 407.5 498.067 407.5 500C407.5 501.933 409.067 503.5 411 503.5Z" stroke="#DD3542"/>
</g>
<defs>
<clipPath id="clip0_0_1">
<rect width="8" height="8" fill="white" transform="translate(1153 613)"/>
</clipPath>
<clipPath id="clip1_0_1">
<rect width="60.749" height="22.895" fill="white" transform="translate(1039 674)"/>
</clipPath>
<clipPath id="clip2_0_1">
<rect width="60.749" height="22.895" fill="white" transform="translate(455 395)"/>
</clipPath>
<clipPath id="clip3_0_1">
<rect width="719.265" height="702.382" fill="white" transform="translate(0 409)"/>
</clipPath>
</defs>
</svg>
